:SAMPLES-PER-SECOND 30
:FULLY-SPECIFIED
:DEGREES
188
root  -3.09961 40.9538 -1.56545 179.414 -84.6484 -179.256
RightUpLeg  2.983 -0.971794 1.30417
RightLeg  -3.80229 -18.253 3.29899
RightFoot  0.0245718 0.089243 -0.893779
RightToes  -3.10678e-008 1.75238e-005 3.56266e-009
Spine  4.73047 -1.92199 -1.55581
Spine1  -6.28983 -2.22946 2.28892
HEad  3.41912 5.49238 2.61405
LeftShoulder1  1.25296 -1.41444 -18.9098
LeftArm  -4.9024 -0.544618 -39.2957
LeftForeArm  101.494 -80.0866 -96.3692
LeftHand  -0.599941 -3.73638 7.89151
RightShoulder  0.886917 0.614893 14.7748
RightArm  -15.0415 26.3098 34.0969
RightForeArm  59.8335 78.4953 62.4613
RightHand  -0.276355 8.87216 -2.62923
LeftUpLeg  3.93349 2.45287 4.49132
LeftLeg  -3.54791 20.9798 -1.5048
LeftFoot  1.14702 0.582872 -5.35047
LeftToes  4.7643e-008 1.47522e-008 1.32869e-009
189
root  -3.17397 40.9515 -1.59326 -179.175 -85.3511 179.702
RightUpLeg  2.68637 -0.889367 1.29323
RightLeg  -3.6778 -18.9912 3.20613
RightFoot  -0.214752 0.0634129 -0.666119
RightToes  -3.10678e-008 1.75238e-005 3.56266e-009
Spine  5.59721 -1.85414 -1.46578
Spine1  -8.58058 -2.09746 2.21353
HEad  4.14409 5.21379 2.47028
LeftShoulder1  1.06007 -0.780781 -18.1472
LeftArm  -5.36918 -2.48763 -40.7066
LeftForeArm  101.058 -80.1164 -95.5865
LeftHand  -0.600889 -3.95898 7.72771
RightShoulder  0.869468 0.491959 15.0305
RightArm  -13.4975 23.4331 34.0078
RightForeArm  64.2843 78.9285 67.9212
RightHand  -0.177222 8.7959 -1.83659
LeftUpLeg  3.57935 2.37226 4.45179
LeftLeg  -3.62949 20.3992 -1.54525
LeftFoot  1.13832 0.588661 -5.4228
LeftToes  4.7643e-008 1.47522e-008 1.32869e-009
190
root  -3.28614 40.957 -1.62328 -176.598 -86.2144 177.455
RightUpLeg  2.6997 -0.968019 1.17803
RightLeg  -3.97733 -19.6975 3.32665
RightFoot  -0.300712 0.0502558 -0.541226
RightToes  -3.10678e-008 1.75238e-005 3.56266e-009
Spine  6.33333 -1.62654 -2.09721
Spine1  -10.7783 -1.90563 3.12864
HEad  4.82039 4.87633 1.68164
LeftShoulder1  1.0451 -0.710836 -18.1902
LeftArm  -5.93727 -4.40291 -41.5456
LeftForeArm  101.68 -80.1242 -95.9199
LeftHand  -0.610747 -3.81837 7.96264
RightShoulder  0.786737 0.124294 14.9388
RightArm  -11.727 19.6756 33.5051
RightForeArm  70.8803 79.3542 74.6915
RightHand  -0.265074 8.54938 -2.58359
LeftUpLeg  3.48618 2.24198 4.34176
LeftLeg  -4.1274 19.6968 -1.71413
LeftFoot  1.31015 0.587482 -5.37326
LeftToes  4.7643e-008 1.47522e-008 1.32869e-009
191
root  -3.39568 40.9659 -1.64071 -174.456 -86.9615 175.734
RightUpLeg  2.62019 -1.04539 1.09656
RightLeg  -4.3079 -20.2457 3.53287
RightFoot  -0.261718 0.02731 -0.298408
RightToes  -3.10678e-008 1.75238e-005 3.56266e-009
Spine  7.11145 -1.45313 -2.40823
Spine1  -13.0328 -1.7253 3.81416
HEad  5.42386 4.36363 0.967742
LeftShoulder1  0.882046 -0.0868215 -17.9463
LeftArm  -6.14125 -6.75377 -42.6609
LeftForeArm  102.314 -80.105 -96.6688
LeftHand  -0.596833 -3.53065 8.01928
RightShoulder  0.689963 -0.259806 14.5157
RightArm  -10.147 16.1545 33.787
RightForeArm  76.7758 79.5789 80.5509
RightHand  -0.222555 8.36167 -2.25258
LeftUpLeg  3.35197 2.17352 4.33227
LeftLeg  -4.71547 19.0401 -1.93127
LeftFoot  1.55711 0.583451 -5.24342
LeftToes  4.7643e-008 1.47522e-008 1.32869e-009
192
root  -3.50288 40.9737 -1.6463 -170.674 -87.4945 172.487
RightUpLeg  2.40234 -1.14671 0.95038
RightLeg  -4.66219 -20.6059 3.76422
RightFoot  -0.243396 0.0322811 -0.360401
RightToes  -3.10678e-008 1.75238e-005 3.56266e-009
Spine  7.88375 -1.16247 -2.33652
Spine1  -15.3495 -1.35608 3.67244
HEad  5.52471 3.92261 0.4848
LeftShoulder1  0.818143 0.111688 -17.4281
LeftArm  -6.33047 -8.96214 -43.6405
LeftForeArm  104.141 -80.1072 -97.8983
LeftHand  -0.631953 -3.87919 8.1776
RightShoulder  0.704942 -0.280027 15.1697
RightArm  -8.56603 11.6923 32.4651
RightForeArm  86.4156 79.7429 89.9199
RightHand  -0.286404 8.92872 -2.70779
LeftUpLeg  3.05869 2.03184 4.233
LeftLeg  -5.1632 18.6578 -2.0805
LeftFoot  1.79361 0.594849 -5.26058
LeftToes  4.7643e-008 1.47522e-008 1.32869e-009
193
root  -3.6087 40.9823 -1.64993 -167.94 -87.9822 170.162
RightUpLeg  2.31276 -1.16697 0.914978
RightLeg  -5.0037 -21.0067 3.94892
RightFoot  -0.164813 0.0232875 -0.30269
RightToes  -3.10678e-008 1.75238e-005 3.56266e-009
Spine  8.08747 -1.08431 -2.25783
Spine1  -16.4602 -1.2413 3.6903
HEad  4.65866 3.76601 0.251692
LeftShoulder1  0.63351 0.796783 -16.6884
LeftArm  -6.65189 -11.4706 -45.0463
LeftForeArm  105.11 -80.099 -98.6373
LeftHand  -0.670341 -4.07792 8.48716
RightShoulder  0.6861 -0.339922 14.9726
RightArm  -7.00155 7.93078 32.8407
RightForeArm  92.3528 79.7539 94.8101
RightHand  -0.265482 9.02149 -2.52368
LeftUpLeg  2.9108 1.9933 4.24585
LeftLeg  -5.61619 18.278 -2.25055
LeftFoot  2.01011 0.589632 -5.14042
LeftToes  4.7643e-008 1.47522e-008 1.32869e-009
194
root  -3.72368 40.9858 -1.65366 -161.877 -88.3618 164.296
RightUpLeg  2.36488 -1.23603 0.810398
RightLeg  -5.13477 -21.3048 3.99739
RightFoot  -0.222345 0.000950002 -0.0423377
RightToes  -3.10678e-008 1.75238e-005 3.56266e-009
Spine  7.97862 -0.914049 -2.57173
Spine1  -16.6175 -1.08764 4.0896
HEad  3.41596 3.77215 0.0191876
LeftShoulder1  0.571143 1.06406 -16.6764
LeftArm  -7.08714 -13.9656 -45.4507
LeftForeArm  108.681 -79.9985 -102.096
LeftHand  -0.694535 -4.21337 8.66848
RightShoulder  0.706906 -0.2629 15.1082
RightArm  -5.6015 4.29514 32.4546
RightForeArm  96.3482 79.652 99.0596
RightHand  -0.286142 8.87476 -2.72289
LeftUpLeg  2.99922 1.89381 4.16212
LeftLeg  -6.02238 18.0305 -2.36064
LeftFoot  2.16496 0.604898 -5.21813
LeftToes  4.7643e-008 1.47522e-008 1.32869e-009
